<mxfile host="app.diagrams.net" modified="2023-04-07T20:01:31.294Z" agent="Mozilla/5.0 (Windows NT 10.0; Win64; x64) AppleWebKit/537.36 (KHTML, like Gecko) Chrome/112.0.0.0 Safari/537.36" etag="otNoEmScpazbw61z4m7C" version="21.1.5" type="google">
  <diagram name="Página-1" id="0WDpCPo10-lNRu1Zavd-">
    <mxGraphModel dx="1363" dy="799" grid="1" gridSize="10" guides="1" tooltips="1" connect="1" arrows="1" fold="1" page="1" pageScale="1" pageWidth="827" pageHeight="1169" math="0" shadow="0">
      <root>
        <mxCell id="0" />
        <mxCell id="1" parent="0" />
        <mxCell id="MDMEhWYUzNV50FFV4K5y-11" value="" style="rounded=0;whiteSpace=wrap;html=1;rotation=90;" parent="1" vertex="1">
          <mxGeometry x="62.75999999999999" y="214.85" width="873.69" height="525" as="geometry" />
        </mxCell>
        <mxCell id="EVOC1HDOttIeqbUb9wUL-1" value="UserCLIENT" style="shape=umlActor;verticalLabelPosition=bottom;verticalAlign=top;html=1;outlineConnect=0;" parent="1" vertex="1">
          <mxGeometry x="96" y="728" width="30" height="50" as="geometry" />
        </mxCell>
        <mxCell id="EVOC1HDOttIeqbUb9wUL-6" value="&lt;b&gt;Sistema Gerenciar Receitas -SmartNutri&lt;/b&gt;" style="text;html=1;strokeColor=none;fillColor=none;align=center;verticalAlign=middle;whiteSpace=wrap;rounded=0;" parent="1" vertex="1">
          <mxGeometry x="383" y="39" width="236" height="27" as="geometry" />
        </mxCell>
        <mxCell id="EVOC1HDOttIeqbUb9wUL-7" value="gerenciar cadastro" style="ellipse;whiteSpace=wrap;html=1;" parent="1" vertex="1">
          <mxGeometry x="379" y="372" width="120" height="80" as="geometry" />
        </mxCell>
        <mxCell id="EVOC1HDOttIeqbUb9wUL-10" value="gerenciar receitas por perfil" style="ellipse;whiteSpace=wrap;html=1;" parent="1" vertex="1">
          <mxGeometry x="470.22" y="170" width="120" height="80" as="geometry" />
        </mxCell>
        <mxCell id="EVOC1HDOttIeqbUb9wUL-12" value="gerenciar banco de dados de receitas" style="ellipse;whiteSpace=wrap;html=1;" parent="1" vertex="1">
          <mxGeometry x="280" y="104" width="120" height="80" as="geometry" />
        </mxCell>
        <mxCell id="EVOC1HDOttIeqbUb9wUL-13" value="Gerenciar visualizar receitas" style="ellipse;whiteSpace=wrap;html=1;" parent="1" vertex="1">
          <mxGeometry x="543.61" y="524" width="120" height="80" as="geometry" />
        </mxCell>
        <mxCell id="EVOC1HDOttIeqbUb9wUL-14" value="buscar receita" style="ellipse;whiteSpace=wrap;html=1;" parent="1" vertex="1">
          <mxGeometry x="379" y="624" width="120" height="80" as="geometry" />
        </mxCell>
        <mxCell id="EVOC1HDOttIeqbUb9wUL-15" value="Login usuário" style="ellipse;whiteSpace=wrap;html=1;" parent="1" vertex="1">
          <mxGeometry x="280" y="476" width="120" height="80" as="geometry" />
        </mxCell>
        <mxCell id="EVOC1HDOttIeqbUb9wUL-16" value="gerenciar download receita" style="ellipse;whiteSpace=wrap;html=1;" parent="1" vertex="1">
          <mxGeometry x="379" y="716" width="120" height="80" as="geometry" />
        </mxCell>
        <mxCell id="EVOC1HDOttIeqbUb9wUL-18" value="DevelopedAdmin" style="shape=umlActor;verticalLabelPosition=bottom;verticalAlign=top;html=1;outlineConnect=0;" parent="1" vertex="1">
          <mxGeometry x="96" y="66" width="30" height="50" as="geometry" />
        </mxCell>
        <mxCell id="8kLeUBKPX5vVFf5oOHLh-4" value="" style="endArrow=none;html=1;rounded=0;entryX=0.009;entryY=0.424;entryDx=0;entryDy=0;exitX=1;exitY=0.3333333333333333;exitDx=0;exitDy=0;exitPerimeter=0;entryPerimeter=0;edgeStyle=orthogonalEdgeStyle;" parent="1" source="EVOC1HDOttIeqbUb9wUL-18" target="EVOC1HDOttIeqbUb9wUL-12" edge="1">
          <mxGeometry width="50" height="50" relative="1" as="geometry">
            <mxPoint x="136" y="420" as="sourcePoint" />
            <mxPoint x="196" y="300" as="targetPoint" />
            <Array as="points">
              <mxPoint x="200" y="83" />
              <mxPoint x="200" y="138" />
            </Array>
          </mxGeometry>
        </mxCell>
        <mxCell id="8kLeUBKPX5vVFf5oOHLh-20" value="" style="endArrow=none;html=1;rounded=0;exitX=1;exitY=0.3333333333333333;exitDx=0;exitDy=0;exitPerimeter=0;edgeStyle=orthogonalEdgeStyle;entryX=0;entryY=0.5;entryDx=0;entryDy=0;" parent="1" source="EVOC1HDOttIeqbUb9wUL-1" target="EVOC1HDOttIeqbUb9wUL-7" edge="1">
          <mxGeometry width="50" height="50" relative="1" as="geometry">
            <mxPoint x="136" y="530" as="sourcePoint" />
            <mxPoint x="246" y="330" as="targetPoint" />
            <Array as="points">
              <mxPoint x="200" y="745" />
              <mxPoint x="200" y="412" />
            </Array>
          </mxGeometry>
        </mxCell>
        <mxCell id="8kLeUBKPX5vVFf5oOHLh-22" value="Algoritmo I.A." style="shape=umlActor;verticalLabelPosition=bottom;verticalAlign=top;html=1;outlineConnect=0;" parent="1" vertex="1">
          <mxGeometry x="96" y="302" width="30" height="60" as="geometry" />
        </mxCell>
        <mxCell id="8kLeUBKPX5vVFf5oOHLh-23" value="" style="endArrow=none;html=1;rounded=0;entryX=0;entryY=0.5;entryDx=0;entryDy=0;exitX=1;exitY=0.3333333333333333;exitDx=0;exitDy=0;exitPerimeter=0;edgeStyle=orthogonalEdgeStyle;" parent="1" source="8kLeUBKPX5vVFf5oOHLh-22" target="EVOC1HDOttIeqbUb9wUL-10" edge="1">
          <mxGeometry width="50" height="50" relative="1" as="geometry">
            <mxPoint x="136" y="160" as="sourcePoint" />
            <mxPoint x="366" y="220" as="targetPoint" />
            <Array as="points">
              <mxPoint x="200" y="322" />
              <mxPoint x="200" y="209" />
            </Array>
          </mxGeometry>
        </mxCell>
        <mxCell id="8kLeUBKPX5vVFf5oOHLh-30" value="" style="endArrow=open;html=1;rounded=0;exitX=0;exitY=1;exitDx=0;exitDy=0;endFill=0;dashed=1;entryX=1;entryY=0.5;entryDx=0;entryDy=0;" parent="1" source="EVOC1HDOttIeqbUb9wUL-10" target="8kLeUBKPX5vVFf5oOHLh-41" edge="1">
          <mxGeometry width="50" height="50" relative="1" as="geometry">
            <mxPoint x="395" y="230" as="sourcePoint" />
            <mxPoint x="445" y="180" as="targetPoint" />
            <Array as="points">
              <mxPoint x="488" y="290" />
            </Array>
          </mxGeometry>
        </mxCell>
        <mxCell id="8kLeUBKPX5vVFf5oOHLh-32" value="" style="endArrow=open;html=1;rounded=0;exitX=0.5;exitY=0;exitDx=0;exitDy=0;entryX=0.996;entryY=0.43;entryDx=0;entryDy=0;entryPerimeter=0;dashed=1;endFill=0;" parent="1" source="EVOC1HDOttIeqbUb9wUL-10" target="EVOC1HDOttIeqbUb9wUL-12" edge="1">
          <mxGeometry width="50" height="50" relative="1" as="geometry">
            <mxPoint x="405" y="240" as="sourcePoint" />
            <mxPoint x="455" y="190" as="targetPoint" />
            <Array as="points">
              <mxPoint x="530" y="140" />
            </Array>
          </mxGeometry>
        </mxCell>
        <mxCell id="8kLeUBKPX5vVFf5oOHLh-41" value="Gerenciar banco de dados de perfil" style="ellipse;whiteSpace=wrap;html=1;" parent="1" vertex="1">
          <mxGeometry x="280" y="250" width="120" height="80" as="geometry" />
        </mxCell>
        <mxCell id="8kLeUBKPX5vVFf5oOHLh-54" value="" style="endArrow=none;startArrow=open;html=1;rounded=0;dashed=1;endFill=0;startFill=0;exitX=1;exitY=0.5;exitDx=0;exitDy=0;edgeStyle=orthogonalEdgeStyle;entryX=0.5;entryY=0;entryDx=0;entryDy=0;" parent="1" source="EVOC1HDOttIeqbUb9wUL-10" target="EVOC1HDOttIeqbUb9wUL-13" edge="1">
          <mxGeometry width="50" height="50" relative="1" as="geometry">
            <mxPoint x="565" y="429" as="sourcePoint" />
            <mxPoint x="585" y="400" as="targetPoint" />
          </mxGeometry>
        </mxCell>
        <mxCell id="8kLeUBKPX5vVFf5oOHLh-65" value="" style="endArrow=none;html=1;rounded=0;exitX=1;exitY=0.3333333333333333;exitDx=0;exitDy=0;exitPerimeter=0;edgeStyle=orthogonalEdgeStyle;entryX=0;entryY=0.5;entryDx=0;entryDy=0;" parent="1" source="8kLeUBKPX5vVFf5oOHLh-22" target="8kLeUBKPX5vVFf5oOHLh-41" edge="1">
          <mxGeometry width="50" height="50" relative="1" as="geometry">
            <mxPoint x="128.0000000000001" y="322" as="sourcePoint" />
            <mxPoint x="270" y="290" as="targetPoint" />
            <Array as="points">
              <mxPoint x="202" y="322" />
              <mxPoint x="202" y="290" />
            </Array>
          </mxGeometry>
        </mxCell>
        <mxCell id="8kLeUBKPX5vVFf5oOHLh-67" value="" style="endArrow=block;html=1;rounded=0;entryX=0.5;entryY=0;entryDx=0;entryDy=0;endFill=0;exitX=0.334;exitY=0.975;exitDx=0;exitDy=0;exitPerimeter=0;" parent="1" source="8kLeUBKPX5vVFf5oOHLh-41" target="EVOC1HDOttIeqbUb9wUL-7" edge="1">
          <mxGeometry width="50" height="50" relative="1" as="geometry">
            <mxPoint x="320" y="330" as="sourcePoint" />
            <mxPoint x="399" y="365" as="targetPoint" />
            <Array as="points">
              <mxPoint x="320" y="350" />
              <mxPoint x="439" y="350" />
            </Array>
          </mxGeometry>
        </mxCell>
        <mxCell id="8kLeUBKPX5vVFf5oOHLh-69" value="" style="endArrow=none;startArrow=open;html=1;rounded=0;entryX=0;entryY=1;entryDx=0;entryDy=0;exitX=1;exitY=0.5;exitDx=0;exitDy=0;dashed=1;endFill=0;startFill=0;" parent="1" source="EVOC1HDOttIeqbUb9wUL-14" target="EVOC1HDOttIeqbUb9wUL-13" edge="1">
          <mxGeometry width="50" height="50" relative="1" as="geometry">
            <mxPoint x="585" y="460" as="sourcePoint" />
            <mxPoint x="635" y="410" as="targetPoint" />
            <Array as="points">
              <mxPoint x="560" y="664" />
            </Array>
          </mxGeometry>
        </mxCell>
        <mxCell id="8kLeUBKPX5vVFf5oOHLh-71" value="&lt;font size=&quot;1&quot; style=&quot;&quot;&gt;&lt;span style=&quot;font-size: 12px;&quot;&gt;&amp;lt;&amp;lt; Include&amp;gt;&amp;gt;&lt;/span&gt;&lt;/font&gt;" style="text;html=1;strokeColor=none;fillColor=none;align=center;verticalAlign=middle;whiteSpace=wrap;rounded=0;rotation=0;" parent="1" vertex="1">
          <mxGeometry x="507.4" y="650" width="80" height="9" as="geometry" />
        </mxCell>
        <mxCell id="8kLeUBKPX5vVFf5oOHLh-72" value="&lt;font style=&quot;font-size: 12px;&quot;&gt;&amp;lt;&amp;lt; Include&amp;gt;&amp;gt;&lt;/font&gt;" style="text;html=1;strokeColor=none;fillColor=none;align=center;verticalAlign=middle;whiteSpace=wrap;rounded=0;rotation=-90;" parent="1" vertex="1">
          <mxGeometry x="555.59" y="255.59" width="80.96" height="9" as="geometry" />
        </mxCell>
        <mxCell id="8kLeUBKPX5vVFf5oOHLh-73" value="&lt;font style=&quot;font-size: 12px;&quot;&gt;&amp;lt;&amp;lt; Include&amp;gt;&amp;gt;&lt;/font&gt;" style="text;html=1;strokeColor=none;fillColor=none;align=center;verticalAlign=middle;whiteSpace=wrap;rounded=0;rotation=0;" parent="1" vertex="1">
          <mxGeometry x="407.61" y="280" width="82.39" height="8" as="geometry" />
        </mxCell>
        <mxCell id="8kLeUBKPX5vVFf5oOHLh-74" value="&lt;font style=&quot;font-size: 12px;&quot;&gt;&amp;lt;&amp;lt; Include&amp;gt;&amp;gt;&lt;/font&gt;" style="text;html=1;strokeColor=none;fillColor=none;align=center;verticalAlign=middle;whiteSpace=wrap;rounded=0;rotation=0;" parent="1" vertex="1">
          <mxGeometry x="402.61" y="128" width="82.39" height="9" as="geometry" />
        </mxCell>
        <mxCell id="8kLeUBKPX5vVFf5oOHLh-77" value="&lt;font style=&quot;font-size: 12px;&quot;&gt;&amp;lt;&amp;lt; Extend&amp;gt;&amp;gt;&lt;/font&gt;" style="text;html=1;strokeColor=none;fillColor=none;align=center;verticalAlign=middle;whiteSpace=wrap;rounded=0;rotation=0;" parent="1" vertex="1">
          <mxGeometry x="395.21" y="476.21" width="72.79" height="9" as="geometry" />
        </mxCell>
        <mxCell id="8kLeUBKPX5vVFf5oOHLh-83" value="&lt;font style=&quot;font-size: 12px;&quot;&gt;&amp;lt;&amp;lt; Include&amp;gt;&amp;gt;&lt;/font&gt;" style="text;html=1;strokeColor=none;fillColor=none;align=center;verticalAlign=middle;whiteSpace=wrap;rounded=0;rotation=-90;" parent="1" vertex="1">
          <mxGeometry x="484" y="296" width="78.78" height="9" as="geometry" />
        </mxCell>
        <mxCell id="8kLeUBKPX5vVFf5oOHLh-85" value="" style="endArrow=none;html=1;rounded=0;entryX=1;entryY=0.5;entryDx=0;entryDy=0;exitX=0.5;exitY=1;exitDx=0;exitDy=0;dashed=1;endFill=0;startArrow=open;startFill=0;" parent="1" source="EVOC1HDOttIeqbUb9wUL-13" target="EVOC1HDOttIeqbUb9wUL-16" edge="1">
          <mxGeometry width="50" height="50" relative="1" as="geometry">
            <mxPoint x="455" y="460" as="sourcePoint" />
            <mxPoint x="505" y="410" as="targetPoint" />
            <Array as="points">
              <mxPoint x="604" y="756" />
            </Array>
          </mxGeometry>
        </mxCell>
        <mxCell id="8kLeUBKPX5vVFf5oOHLh-86" value="&lt;font style=&quot;font-size: 12px;&quot;&gt;&amp;lt;&amp;lt; Extend&amp;gt;&amp;gt;&lt;/font&gt;" style="text;html=1;strokeColor=none;fillColor=none;align=center;verticalAlign=middle;whiteSpace=wrap;rounded=0;rotation=0;" parent="1" vertex="1">
          <mxGeometry x="555.78" y="746" width="81.22" height="9" as="geometry" />
        </mxCell>
        <mxCell id="8kLeUBKPX5vVFf5oOHLh-89" value="" style="endArrow=open;html=1;rounded=0;exitX=0.5;exitY=0;exitDx=0;exitDy=0;entryX=0.5;entryY=1;entryDx=0;entryDy=0;endFill=0;dashed=1;edgeStyle=orthogonalEdgeStyle;" parent="1" source="EVOC1HDOttIeqbUb9wUL-14" target="EVOC1HDOttIeqbUb9wUL-10" edge="1">
          <mxGeometry width="50" height="50" relative="1" as="geometry">
            <mxPoint x="445" y="320" as="sourcePoint" />
            <mxPoint x="495" y="270" as="targetPoint" />
            <Array as="points">
              <mxPoint x="439" y="610" />
              <mxPoint x="530" y="610" />
            </Array>
          </mxGeometry>
        </mxCell>
        <mxCell id="8kLeUBKPX5vVFf5oOHLh-91" value="" style="endArrow=none;html=1;rounded=0;exitX=0.5;exitY=1;exitDx=0;exitDy=0;endFill=0;dashed=1;startArrow=open;startFill=0;entryX=1;entryY=0.5;entryDx=0;entryDy=0;" parent="1" source="EVOC1HDOttIeqbUb9wUL-7" target="EVOC1HDOttIeqbUb9wUL-15" edge="1">
          <mxGeometry width="50" height="50" relative="1" as="geometry">
            <mxPoint x="335.20000000000005" y="385.1400000000001" as="sourcePoint" />
            <mxPoint x="344.42640687119285" y="438.715728752538" as="targetPoint" />
            <Array as="points">
              <mxPoint x="440" y="516" />
            </Array>
          </mxGeometry>
        </mxCell>
        <mxCell id="8kLeUBKPX5vVFf5oOHLh-99" value="Gerenciar receitas favoritas" style="ellipse;whiteSpace=wrap;html=1;" parent="1" vertex="1">
          <mxGeometry x="623.61" y="807" width="120" height="80" as="geometry" />
        </mxCell>
        <mxCell id="MDMEhWYUzNV50FFV4K5y-1" value="gerenciar avaliação e comentários" style="ellipse;whiteSpace=wrap;html=1;" parent="1" vertex="1">
          <mxGeometry x="623.61" y="66" width="120" height="80" as="geometry" />
        </mxCell>
        <mxCell id="MDMEhWYUzNV50FFV4K5y-2" value="gerar avaliação e comentários" style="ellipse;whiteSpace=wrap;html=1;" parent="1" vertex="1">
          <mxGeometry x="379" y="807" width="120" height="80" as="geometry" />
        </mxCell>
        <mxCell id="MDMEhWYUzNV50FFV4K5y-3" value="" style="endArrow=none;html=1;rounded=0;entryX=0;entryY=0.5;entryDx=0;entryDy=0;exitX=1;exitY=0.3333333333333333;exitDx=0;exitDy=0;exitPerimeter=0;edgeStyle=orthogonalEdgeStyle;" parent="1" source="EVOC1HDOttIeqbUb9wUL-18" target="MDMEhWYUzNV50FFV4K5y-1" edge="1">
          <mxGeometry width="50" height="50" relative="1" as="geometry">
            <mxPoint x="124" y="82.66666666666669" as="sourcePoint" />
            <mxPoint x="621.6100000000001" y="106" as="targetPoint" />
            <Array as="points">
              <mxPoint x="200" y="83" />
              <mxPoint x="200" y="70" />
              <mxPoint x="458" y="70" />
              <mxPoint x="458" y="106" />
            </Array>
          </mxGeometry>
        </mxCell>
        <mxCell id="MDMEhWYUzNV50FFV4K5y-4" value="" style="endArrow=open;html=1;rounded=0;entryX=1;entryY=0.5;entryDx=0;entryDy=0;exitX=0.5;exitY=1;exitDx=0;exitDy=0;endFill=0;dashed=1;edgeStyle=orthogonalEdgeStyle;" parent="1" source="MDMEhWYUzNV50FFV4K5y-1" target="MDMEhWYUzNV50FFV4K5y-2" edge="1">
          <mxGeometry width="50" height="50" relative="1" as="geometry">
            <mxPoint x="502.78" y="500" as="sourcePoint" />
            <mxPoint x="552.78" y="450" as="targetPoint" />
            <Array as="points">
              <mxPoint x="684" y="790" />
              <mxPoint x="600" y="790" />
              <mxPoint x="600" y="847" />
            </Array>
          </mxGeometry>
        </mxCell>
        <mxCell id="MDMEhWYUzNV50FFV4K5y-5" value="&lt;font style=&quot;font-size: 12px;&quot;&gt;&amp;lt;&amp;lt; Include&amp;gt;&amp;gt;&lt;/font&gt;" style="text;html=1;strokeColor=none;fillColor=none;align=center;verticalAlign=middle;whiteSpace=wrap;rounded=0;rotation=0;" parent="1" vertex="1">
          <mxGeometry x="507.4" y="835" width="75.6" height="9" as="geometry" />
        </mxCell>
        <mxCell id="MDMEhWYUzNV50FFV4K5y-13" value="" style="endArrow=none;html=1;rounded=0;entryX=0;entryY=0.5;entryDx=0;entryDy=0;exitX=1;exitY=0.3333333333333333;exitDx=0;exitDy=0;exitPerimeter=0;edgeStyle=orthogonalEdgeStyle;" parent="1" source="EVOC1HDOttIeqbUb9wUL-1" target="EVOC1HDOttIeqbUb9wUL-13" edge="1">
          <mxGeometry width="50" height="50" relative="1" as="geometry">
            <mxPoint x="118.00000000000011" y="744.6666666666667" as="sourcePoint" />
            <mxPoint x="535.6100000000001" y="564" as="targetPoint" />
            <Array as="points">
              <mxPoint x="202" y="745" />
              <mxPoint x="202" y="564" />
            </Array>
          </mxGeometry>
        </mxCell>
        <mxCell id="MDMEhWYUzNV50FFV4K5y-14" value="" style="endArrow=none;html=1;rounded=0;entryX=0;entryY=0.5;entryDx=0;entryDy=0;exitX=1;exitY=0.3333333333333333;exitDx=0;exitDy=0;exitPerimeter=0;edgeStyle=orthogonalEdgeStyle;" parent="1" source="EVOC1HDOttIeqbUb9wUL-1" target="EVOC1HDOttIeqbUb9wUL-14" edge="1">
          <mxGeometry width="50" height="50" relative="1" as="geometry">
            <mxPoint x="130" y="744.6666666666666" as="sourcePoint" />
            <mxPoint x="383" y="664" as="targetPoint" />
            <Array as="points">
              <mxPoint x="204" y="745" />
              <mxPoint x="204" y="664" />
            </Array>
          </mxGeometry>
        </mxCell>
        <mxCell id="MDMEhWYUzNV50FFV4K5y-15" value="" style="endArrow=none;html=1;rounded=0;entryX=0;entryY=0.5;entryDx=0;entryDy=0;edgeStyle=elbowEdgeStyle;exitX=1;exitY=0.3333333333333333;exitDx=0;exitDy=0;exitPerimeter=0;" parent="1" source="EVOC1HDOttIeqbUb9wUL-1" target="EVOC1HDOttIeqbUb9wUL-16" edge="1">
          <mxGeometry width="50" height="50" relative="1" as="geometry">
            <mxPoint x="130" y="750" as="sourcePoint" />
            <mxPoint x="370" y="770" as="targetPoint" />
            <Array as="points">
              <mxPoint x="200" y="750" />
            </Array>
          </mxGeometry>
        </mxCell>
        <mxCell id="MDMEhWYUzNV50FFV4K5y-16" value="" style="endArrow=none;html=1;rounded=0;entryX=0;entryY=0.5;entryDx=0;entryDy=0;edgeStyle=elbowEdgeStyle;exitX=1;exitY=0.3333333333333333;exitDx=0;exitDy=0;exitPerimeter=0;" parent="1" source="EVOC1HDOttIeqbUb9wUL-1" target="MDMEhWYUzNV50FFV4K5y-2" edge="1">
          <mxGeometry width="50" height="50" relative="1" as="geometry">
            <mxPoint x="130" y="750" as="sourcePoint" />
            <mxPoint x="381" y="847" as="targetPoint" />
            <Array as="points">
              <mxPoint x="202" y="750" />
              <mxPoint x="202" y="800" />
            </Array>
          </mxGeometry>
        </mxCell>
        <mxCell id="MDMEhWYUzNV50FFV4K5y-20" value="" style="endArrow=none;html=1;rounded=0;exitX=1;exitY=0.3333333333333333;exitDx=0;exitDy=0;exitPerimeter=0;entryX=0.5;entryY=1;entryDx=0;entryDy=0;edgeStyle=orthogonalEdgeStyle;" parent="1" source="EVOC1HDOttIeqbUb9wUL-1" target="8kLeUBKPX5vVFf5oOHLh-99" edge="1">
          <mxGeometry width="50" height="50" relative="1" as="geometry">
            <mxPoint x="122" y="744.6666666666665" as="sourcePoint" />
            <mxPoint x="679.6100000000001" y="887" as="targetPoint" />
            <Array as="points">
              <mxPoint x="200" y="745" />
              <mxPoint x="200" y="900" />
              <mxPoint x="684" y="900" />
            </Array>
          </mxGeometry>
        </mxCell>
        <mxCell id="MDMEhWYUzNV50FFV4K5y-21" value="" style="endArrow=none;html=1;rounded=0;entryX=0;entryY=0.5;entryDx=0;entryDy=0;edgeStyle=orthogonalEdgeStyle;exitX=1;exitY=0.3333333333333333;exitDx=0;exitDy=0;exitPerimeter=0;" parent="1" source="EVOC1HDOttIeqbUb9wUL-1" target="EVOC1HDOttIeqbUb9wUL-15" edge="1">
          <mxGeometry width="50" height="50" relative="1" as="geometry">
            <mxPoint x="124" y="744.6666666666667" as="sourcePoint" />
            <mxPoint x="273.9999999999999" y="516" as="targetPoint" />
            <Array as="points">
              <mxPoint x="204" y="745" />
              <mxPoint x="204" y="516" />
            </Array>
          </mxGeometry>
        </mxCell>
        <mxCell id="MDMEhWYUzNV50FFV4K5y-25" value="monitorar&lt;br&gt;&amp;nbsp;e &lt;br&gt;comentar" style="shape=note;whiteSpace=wrap;html=1;backgroundOutline=1;darkOpacity=0.05;size=17;" parent="1" vertex="1">
          <mxGeometry x="700" y="160" width="60" height="80" as="geometry" />
        </mxCell>
        <mxCell id="MDMEhWYUzNV50FFV4K5y-26" value="" style="endArrow=none;html=1;rounded=0;entryX=0;entryY=0;entryDx=21.500000000000004;entryDy=0;entryPerimeter=0;exitX=1;exitY=1;exitDx=0;exitDy=0;dashed=1;" parent="1" source="MDMEhWYUzNV50FFV4K5y-1" target="MDMEhWYUzNV50FFV4K5y-25" edge="1">
          <mxGeometry width="50" height="50" relative="1" as="geometry">
            <mxPoint x="623.61" y="210" as="sourcePoint" />
            <mxPoint x="673.61" y="160" as="targetPoint" />
          </mxGeometry>
        </mxCell>
      </root>
    </mxGraphModel>
  </diagram>
</mxfile>
